<?xml version="1.0" encoding="UTF-8" standalone="no"?>
<svg
   xmlns:osb="http://www.openswatchbook.org/uri/2009/osb"
   xmlns:dc="http://purl.org/dc/elements/1.1/"
   xmlns:cc="http://creativecommons.org/ns#"
   xmlns:rdf="http://www.w3.org/1999/02/22-rdf-syntax-ns#"
   xmlns:svg="http://www.w3.org/2000/svg"
   xmlns="http://www.w3.org/2000/svg"
   id="svg4"
   version="1.1"
   height="18px"
   width="18px"
   fill="white"
   viewBox="0 0 24 24">
  <metadata
     id="metadata10">
    <rdf:RDF>
      <cc:Work
         rdf:about="">
        <dc:format>image/svg+xml</dc:format>
        <dc:type
           rdf:resource="http://purl.org/dc/dcmitype/StillImage" />
        <dc:title></dc:title>
      </cc:Work>
    </rdf:RDF>
  </metadata>
  <defs
     id="defs8">
    <linearGradient
       osb:paint="solid"
       id="linearGradient2843">
      <stop
         id="stop2841"
         offset="0"
         style="stop-color:#f8c3cd;stop-opacity:1;" />
    </linearGradient>
    <linearGradient
       osb:paint="solid"
       id="linearGradient2307">
      <stop
         id="stop2305"
         offset="0"
         style="stop-color:#f8c3cd;stop-opacity:1;" />
    </linearGradient>
  </defs>
  <path
     style="fill:#f8c3cd;fill-opacity:1"
     id="path2"
     d="M15 7.29V3c0-.55-.45-1-1-1h-4c-.55 0-1 .45-1 1v4.29c0 .13.05.26.15.35l2.5 2.5c.2.2.51.2.71 0l2.5-2.5c.09-.09.14-.21.14-.35zM7.29 9H3c-.55 0-1 .45-1 1v4c0 .55.45 1 1 1h4.29c.13 0 .26-.05.35-.15l2.5-2.5c.2-.2.2-.51 0-.71l-2.5-2.5C7.55 9.05 7.43 9 7.29 9zM9 16.71V21c0 .55.45 1 1 1h4c.55 0 1-.45 1-1v-4.29c0-.13-.05-.26-.15-.35l-2.5-2.5c-.2-.2-.51-.2-.71 0l-2.5 2.5c-.09.09-.14.21-.14.35zm7.35-7.56l-2.5 2.5c-.2.2-.2.51 0 .71l2.5 2.5c.09.09.22.15.35.15H21c.55 0 1-.45 1-1v-4c0-.55-.45-1-1-1h-4.29c-.14-.01-.26.04-.36.14z" />
</svg>
